<svg width="21" height="20" viewBox="0 0 21 20" fill="none" xmlns="http://www.w3.org/2000/svg">
<path fill-rule="evenodd" clip-rule="evenodd" d="M19.95 14.1666C19.95 14.6666 19.6166 15 19.1166 15H2.44997C1.94997 15 1.61664 14.6666 1.61664 14.1666C1.61664 13.6666 1.94997 13.3333 2.44997 13.3333C3.36664 13.3333 4.11664 12.5833 4.11664 11.6666V7.49998C4.11664 3.83331 7.11664 0.833313 10.7833 0.833313C14.45 0.833313 17.45 3.83331 17.45 7.49998V11.6666C17.45 12.5833 18.2 13.3333 19.1166 13.3333C19.6166 13.3333 19.95 13.6666 19.95 14.1666ZM12.95 17.9166C12.45 18.75 11.6166 19.1666 10.7833 19.1666C10.3666 19.1666 9.94997 19.0833 9.53331 18.8333C9.11664 18.5833 8.86664 18.3333 8.61664 17.9166C8.36664 17.5 8.53331 17 8.94997 16.75C9.36664 16.5 9.86664 16.6666 10.1166 17.0833C10.1419 17.1085 10.1671 17.1414 10.1946 17.1773L10.1946 17.1773C10.2581 17.2599 10.3338 17.3585 10.45 17.4166C10.8666 17.6666 11.3666 17.5 11.6166 17.0833C11.8666 16.6666 12.3666 16.5833 12.7833 16.75C13.2 16.9166 13.2 17.5 12.95 17.9166ZM15.7833 11.6666C15.7833 12.25 15.95 12.8333 16.2 13.3333H5.36664C5.61664 12.8333 5.7833 12.25 5.7833 11.6666V7.49998C5.7833 4.74998 8.0333 2.49998 10.7833 2.49998C13.5333 2.49998 15.7833 4.74998 15.7833 7.49998V11.6666Z" fill="black"/>
<mask id="mask0_321_4782" style="mask-type:alpha" maskUnits="userSpaceOnUse" x="1" y="0" width="19" height="20">
<path fill-rule="evenodd" clip-rule="evenodd" d="M19.95 14.1666C19.95 14.6666 19.6166 15 19.1166 15H2.44997C1.94997 15 1.61664 14.6666 1.61664 14.1666C1.61664 13.6666 1.94997 13.3333 2.44997 13.3333C3.36664 13.3333 4.11664 12.5833 4.11664 11.6666V7.49998C4.11664 3.83331 7.11664 0.833313 10.7833 0.833313C14.45 0.833313 17.45 3.83331 17.45 7.49998V11.6666C17.45 12.5833 18.2 13.3333 19.1166 13.3333C19.6166 13.3333 19.95 13.6666 19.95 14.1666ZM12.95 17.9166C12.45 18.75 11.6166 19.1666 10.7833 19.1666C10.3666 19.1666 9.94997 19.0833 9.53331 18.8333C9.11664 18.5833 8.86664 18.3333 8.61664 17.9166C8.36664 17.5 8.53331 17 8.94997 16.75C9.36664 16.5 9.86664 16.6666 10.1166 17.0833C10.1419 17.1085 10.1671 17.1414 10.1946 17.1773L10.1946 17.1773C10.2581 17.2599 10.3338 17.3585 10.45 17.4166C10.8666 17.6666 11.3666 17.5 11.6166 17.0833C11.8666 16.6666 12.3666 16.5833 12.7833 16.75C13.2 16.9166 13.2 17.5 12.95 17.9166ZM15.7833 11.6666C15.7833 12.25 15.95 12.8333 16.2 13.3333H5.36664C5.61664 12.8333 5.7833 12.25 5.7833 11.6666V7.49998C5.7833 4.74998 8.0333 2.49998 10.7833 2.49998C13.5333 2.49998 15.7833 4.74998 15.7833 7.49998V11.6666Z" fill="white"/>
</mask>
<g mask="url(#mask0_321_4782)">
<rect x="0.783325" width="20" height="20" fill="#6E6B7B"/>
</g>
</svg>
