<svg width="24" height="25" viewBox="0 0 24 25" fill="none" xmlns="http://www.w3.org/2000/svg">
<path d="M16.7 8.83334C16.2928 7.67793 15.2239 6.88619 14 6.83334H10C8.34315 6.83334 7 8.17649 7 9.83334C7 11.4902 8.34315 12.8333 10 12.8333H14C15.6569 12.8333 17 14.1765 17 15.8333C17 17.4902 15.6569 18.8333 14 18.8333H10C8.77606 18.7805 7.70722 17.9888 7.3 16.8333" stroke="black" stroke-width="2" stroke-linecap="round" stroke-linejoin="round"/>
<path d="M12.75 3.83334C12.75 3.41913 12.4142 3.08334 12 3.08334C11.5858 3.08334 11.25 3.41913 11.25 3.83334H12.75ZM11.25 6.83334C11.25 7.24756 11.5858 7.58334 12 7.58334C12.4142 7.58334 12.75 7.24756 12.75 6.83334H11.25ZM12.75 18.8333C12.75 18.4191 12.4142 18.0833 12 18.0833C11.5858 18.0833 11.25 18.4191 11.25 18.8333H12.75ZM11.25 21.8333C11.25 22.2476 11.5858 22.5833 12 22.5833C12.4142 22.5833 12.75 22.2476 12.75 21.8333H11.25ZM11.25 3.83334V6.83334H12.75V3.83334H11.25ZM11.25 18.8333V21.8333H12.75V18.8333H11.25Z" fill="black"/>
</svg>
