<svg width="18" height="18" viewBox="0 0 18 18" fill="none" xmlns="http://www.w3.org/2000/svg">
<path d="M10.5 4.5L12.2197 2.78025C12.3604 2.63965 12.5511 2.56066 12.75 2.56066C12.9489 2.56066 13.1396 2.63965 13.2803 2.78025L15.2197 4.71975C15.3604 4.8604 15.4393 5.05113 15.4393 5.25C15.4393 5.44887 15.3604 5.6396 15.2197 5.78025L13.5 7.5M10.5 4.5L3.21975 11.7802C3.07909 11.9209 3.00004 12.1116 3 12.3105V14.25C3 14.4489 3.07902 14.6397 3.21967 14.7803C3.36032 14.921 3.55109 15 3.75 15H5.6895C5.8884 15 6.07913 14.9209 6.21975 14.7803L13.5 7.5M10.5 4.5L13.5 7.5" stroke="white" stroke-width="2" stroke-linecap="round" stroke-linejoin="round"/>
</svg>
