<svg width="18" height="19" viewBox="0 0 18 19" fill="none" xmlns="http://www.w3.org/2000/svg">
<path fill-rule="evenodd" clip-rule="evenodd" d="M1.09835 12.0984C1.80161 11.3951 2.75544 11 3.75 11H9C9.99456 11 10.9484 11.3951 11.6517 12.0984C12.3549 12.8016 12.75 13.7554 12.75 14.75V16.25C12.75 16.6642 12.4142 17 12 17C11.5858 17 11.25 16.6642 11.25 16.25V14.75C11.25 14.1533 11.0129 13.581 10.591 13.159C10.169 12.7371 9.59674 12.5 9 12.5H3.75C3.15326 12.5 2.58097 12.7371 2.15901 13.159C1.73705 13.581 1.5 14.1533 1.5 14.75V16.25C1.5 16.6642 1.16421 17 0.75 17C0.335786 17 0 16.6642 0 16.25V14.75C0 13.7554 0.395088 12.8016 1.09835 12.0984Z" fill="black"/>
<path fill-rule="evenodd" clip-rule="evenodd" d="M6.375 3.5C5.13236 3.5 4.125 4.50736 4.125 5.75C4.125 6.99264 5.13236 8 6.375 8C7.61764 8 8.625 6.99264 8.625 5.75C8.625 4.50736 7.61764 3.5 6.375 3.5ZM2.625 5.75C2.625 3.67893 4.30393 2 6.375 2C8.44607 2 10.125 3.67893 10.125 5.75C10.125 7.82107 8.44607 9.5 6.375 9.5C4.30393 9.5 2.625 7.82107 2.625 5.75Z" fill="black"/>
<path fill-rule="evenodd" clip-rule="evenodd" d="M17.7803 6.71967C18.0732 7.01256 18.0732 7.48744 17.7803 7.78033L14.7803 10.7803C14.4874 11.0732 14.0126 11.0732 13.7197 10.7803L12.2197 9.28033C11.9268 8.98744 11.9268 8.51256 12.2197 8.21967C12.5126 7.92678 12.9874 7.92678 13.2803 8.21967L14.25 9.18934L16.7197 6.71967C17.0126 6.42678 17.4874 6.42678 17.7803 6.71967Z" fill="black"/>
</svg>
